<mxfile host="app.diagrams.net" modified="2022-10-07T10:30:52.769Z" agent="5.0 (Macintosh; Intel Mac OS X 10_15_7) AppleWebKit/605.1.15 (KHTML, like Gecko) Version/14.1.2 Safari/605.1.15" etag="negZ4bVA_7sFBvB5CYbU" version="20.4.0" type="github">
  <diagram id="zloy9zrLZ1wWkiFGT145" name="Page-1">
    <mxGraphModel dx="946" dy="645" grid="1" gridSize="10" guides="1" tooltips="1" connect="1" arrows="1" fold="1" page="1" pageScale="1" pageWidth="1169" pageHeight="1654" math="0" shadow="0">
      <root>
        <mxCell id="0" />
        <mxCell id="1" parent="0" />
        <mxCell id="tNd2uU0bsCmuSxHjag_w-1" value="" style="group" vertex="1" connectable="0" parent="1">
          <mxGeometry x="70" y="110" width="1004.51" height="470" as="geometry" />
        </mxCell>
        <mxCell id="tNd2uU0bsCmuSxHjag_w-2" value="" style="rounded=0;whiteSpace=wrap;html=1;rotation=90;" vertex="1" parent="tNd2uU0bsCmuSxHjag_w-1">
          <mxGeometry x="424.6708943089431" y="123.49489795918366" width="202.12701219512198" height="28.77551020408163" as="geometry" />
        </mxCell>
        <mxCell id="tNd2uU0bsCmuSxHjag_w-3" value="Actor" style="shape=umlActor;verticalLabelPosition=bottom;verticalAlign=top;html=1;outlineConnect=0;" vertex="1" parent="tNd2uU0bsCmuSxHjag_w-1">
          <mxGeometry width="24.500243902439024" height="57.55102040816326" as="geometry" />
        </mxCell>
        <mxCell id="tNd2uU0bsCmuSxHjag_w-4" value="Actor" style="shape=umlActor;verticalLabelPosition=bottom;verticalAlign=top;html=1;outlineConnect=0;" vertex="1" parent="tNd2uU0bsCmuSxHjag_w-1">
          <mxGeometry y="115.10204081632652" width="24.500243902439024" height="57.55102040816326" as="geometry" />
        </mxCell>
        <mxCell id="tNd2uU0bsCmuSxHjag_w-5" value="Actor" style="shape=umlActor;verticalLabelPosition=bottom;verticalAlign=top;html=1;outlineConnect=0;" vertex="1" parent="tNd2uU0bsCmuSxHjag_w-1">
          <mxGeometry y="230.20408163265304" width="24.500243902439024" height="57.55102040816326" as="geometry" />
        </mxCell>
        <mxCell id="tNd2uU0bsCmuSxHjag_w-6" value="" style="endArrow=none;html=1;rounded=0;" edge="1" parent="tNd2uU0bsCmuSxHjag_w-1">
          <mxGeometry width="50" height="50" relative="1" as="geometry">
            <mxPoint x="40.833739837398376" y="38.367346938775505" as="sourcePoint" />
            <mxPoint x="130.66796747967481" y="38.367346938775505" as="targetPoint" />
          </mxGeometry>
        </mxCell>
        <mxCell id="tNd2uU0bsCmuSxHjag_w-7" value="" style="endArrow=none;html=1;rounded=0;" edge="1" parent="tNd2uU0bsCmuSxHjag_w-1">
          <mxGeometry width="50" height="50" relative="1" as="geometry">
            <mxPoint x="40.833739837398376" y="153.46938775510202" as="sourcePoint" />
            <mxPoint x="130.66796747967481" y="153.46938775510202" as="targetPoint" />
          </mxGeometry>
        </mxCell>
        <mxCell id="tNd2uU0bsCmuSxHjag_w-8" value="" style="endArrow=none;html=1;rounded=0;" edge="1" parent="tNd2uU0bsCmuSxHjag_w-1">
          <mxGeometry width="50" height="50" relative="1" as="geometry">
            <mxPoint x="32.666991869918704" y="268.57142857142856" as="sourcePoint" />
            <mxPoint x="130.66796747967481" y="268.57142857142856" as="targetPoint" />
          </mxGeometry>
        </mxCell>
        <mxCell id="tNd2uU0bsCmuSxHjag_w-9" value="" style="endArrow=none;html=1;rounded=0;" edge="1" parent="tNd2uU0bsCmuSxHjag_w-1">
          <mxGeometry width="50" height="50" relative="1" as="geometry">
            <mxPoint x="130.66796747967481" y="38.367346938775505" as="sourcePoint" />
            <mxPoint x="130.66796747967481" y="268.57142857142856" as="targetPoint" />
          </mxGeometry>
        </mxCell>
        <mxCell id="tNd2uU0bsCmuSxHjag_w-10" value="" style="endArrow=classic;html=1;rounded=0;" edge="1" parent="tNd2uU0bsCmuSxHjag_w-1">
          <mxGeometry width="50" height="50" relative="1" as="geometry">
            <mxPoint x="130.66796747967481" y="153.46938775510202" as="sourcePoint" />
            <mxPoint x="261.33593495934963" y="153.46938775510202" as="targetPoint" />
          </mxGeometry>
        </mxCell>
        <mxCell id="tNd2uU0bsCmuSxHjag_w-11" value="Commit Code" style="text;html=1;align=center;verticalAlign=middle;resizable=0;points=[];autosize=1;strokeColor=none;fillColor=none;" vertex="1" parent="tNd2uU0bsCmuSxHjag_w-1">
          <mxGeometry x="147.00146341463415" y="115.10204081632652" width="100" height="30" as="geometry" />
        </mxCell>
        <mxCell id="tNd2uU0bsCmuSxHjag_w-12" value="GitLab" style="rounded=0;whiteSpace=wrap;html=1;rotation=90;" vertex="1" parent="tNd2uU0bsCmuSxHjag_w-1">
          <mxGeometry x="188.85604674796747" y="123.49489795918366" width="202.12701219512198" height="57.55102040816326" as="geometry" />
        </mxCell>
        <mxCell id="tNd2uU0bsCmuSxHjag_w-13" value="" style="endArrow=classic;html=1;rounded=0;" edge="1" parent="tNd2uU0bsCmuSxHjag_w-1">
          <mxGeometry width="50" height="50" relative="1" as="geometry">
            <mxPoint x="318.5031707317073" y="151.7908163265306" as="sourcePoint" />
            <mxPoint x="392.0039024390244" y="151.55102040816325" as="targetPoint" />
            <Array as="points">
              <mxPoint x="383.83715447154475" y="151.55102040816325" />
            </Array>
          </mxGeometry>
        </mxCell>
        <mxCell id="tNd2uU0bsCmuSxHjag_w-14" value="Run build Ci" style="rounded=0;whiteSpace=wrap;html=1;" vertex="1" parent="tNd2uU0bsCmuSxHjag_w-1">
          <mxGeometry x="396.08727642276426" y="123.49489795918366" width="98.0009756097561" height="57.55102040816326" as="geometry" />
        </mxCell>
        <mxCell id="tNd2uU0bsCmuSxHjag_w-15" value="" style="endArrow=classic;html=1;rounded=0;" edge="1" parent="tNd2uU0bsCmuSxHjag_w-1">
          <mxGeometry width="50" height="50" relative="1" as="geometry">
            <mxPoint x="494.0882520325203" y="152.1073469387755" as="sourcePoint" />
            <mxPoint x="567.5889837398374" y="151.86755102040826" as="targetPoint" />
            <Array as="points">
              <mxPoint x="559.4222357723578" y="151.86755102040814" />
            </Array>
          </mxGeometry>
        </mxCell>
        <mxCell id="tNd2uU0bsCmuSxHjag_w-16" value="On Every Commit" style="text;html=1;align=center;verticalAlign=middle;resizable=0;points=[];autosize=1;strokeColor=none;fillColor=none;" vertex="1" parent="tNd2uU0bsCmuSxHjag_w-1">
          <mxGeometry x="310.3364227642277" y="191.83673469387756" width="120" height="30" as="geometry" />
        </mxCell>
        <mxCell id="tNd2uU0bsCmuSxHjag_w-17" value="On every Commit&lt;br&gt;to Master Branch" style="text;html=1;align=center;verticalAlign=middle;resizable=0;points=[];autosize=1;strokeColor=none;fillColor=none;" vertex="1" parent="tNd2uU0bsCmuSxHjag_w-1">
          <mxGeometry x="477.7547560975611" y="258.9795918367347" width="120" height="40" as="geometry" />
        </mxCell>
        <mxCell id="tNd2uU0bsCmuSxHjag_w-18" value="Build Docker images" style="rounded=0;whiteSpace=wrap;html=1;" vertex="1" parent="tNd2uU0bsCmuSxHjag_w-1">
          <mxGeometry x="571.6723577235773" y="123.49489795918366" width="98.0009756097561" height="57.55102040816326" as="geometry" />
        </mxCell>
        <mxCell id="tNd2uU0bsCmuSxHjag_w-19" value="" style="endArrow=classic;html=1;rounded=0;" edge="1" parent="tNd2uU0bsCmuSxHjag_w-1">
          <mxGeometry width="50" height="50" relative="1" as="geometry">
            <mxPoint x="669.6733333333333" y="152.5102040816327" as="sourcePoint" />
            <mxPoint x="743.1740650406504" y="152.27040816326556" as="targetPoint" />
            <Array as="points">
              <mxPoint x="735.0073170731708" y="152.2704081632653" />
            </Array>
          </mxGeometry>
        </mxCell>
        <mxCell id="tNd2uU0bsCmuSxHjag_w-20" style="edgeStyle=orthogonalEdgeStyle;rounded=0;orthogonalLoop=1;jettySize=auto;html=1;" edge="1" parent="tNd2uU0bsCmuSxHjag_w-1" source="tNd2uU0bsCmuSxHjag_w-21">
          <mxGeometry relative="1" as="geometry">
            <mxPoint x="792.1745528455285" y="383.6734693877551" as="targetPoint" />
          </mxGeometry>
        </mxCell>
        <mxCell id="tNd2uU0bsCmuSxHjag_w-21" value="Deploy to Stagging" style="rounded=0;whiteSpace=wrap;html=1;" vertex="1" parent="tNd2uU0bsCmuSxHjag_w-1">
          <mxGeometry x="743.1740650406504" y="123.49489795918366" width="98.0009756097561" height="57.55102040816326" as="geometry" />
        </mxCell>
        <mxCell id="tNd2uU0bsCmuSxHjag_w-22" value="env: Stagging" style="text;html=1;align=center;verticalAlign=middle;resizable=0;points=[];autosize=1;strokeColor=none;fillColor=none;" vertex="1" parent="tNd2uU0bsCmuSxHjag_w-1">
          <mxGeometry x="841.1750406504066" y="115.10204081632652" width="100" height="30" as="geometry" />
        </mxCell>
        <mxCell id="tNd2uU0bsCmuSxHjag_w-23" value="" style="rounded=0;whiteSpace=wrap;html=1;rotation=-180;" vertex="1" parent="tNd2uU0bsCmuSxHjag_w-1">
          <mxGeometry x="686.0068292682927" y="244.59183673469389" width="308.29473577235774" height="28.77551020408163" as="geometry" />
        </mxCell>
        <mxCell id="tNd2uU0bsCmuSxHjag_w-24" value="Deploy to Production" style="rounded=0;whiteSpace=wrap;html=1;" vertex="1" parent="tNd2uU0bsCmuSxHjag_w-1">
          <mxGeometry x="743.1740650406504" y="383.6734693877551" width="98.0009756097561" height="57.55102040816326" as="geometry" />
        </mxCell>
        <mxCell id="tNd2uU0bsCmuSxHjag_w-25" value="env: Production" style="text;html=1;align=center;verticalAlign=middle;resizable=0;points=[];autosize=1;strokeColor=none;fillColor=none;" vertex="1" parent="tNd2uU0bsCmuSxHjag_w-1">
          <mxGeometry x="845.2584146341463" y="383.6734693877551" width="110" height="30" as="geometry" />
        </mxCell>
        <mxCell id="tNd2uU0bsCmuSxHjag_w-26" value="Require Manual Interaction to make sure&lt;br&gt;everything running well" style="text;html=1;align=center;verticalAlign=middle;resizable=0;points=[];autosize=1;strokeColor=none;fillColor=none;" vertex="1" parent="tNd2uU0bsCmuSxHjag_w-1">
          <mxGeometry x="808.5080487804879" y="273.3673469387755" width="240" height="40" as="geometry" />
        </mxCell>
        <mxCell id="tNd2uU0bsCmuSxHjag_w-27" value="On every Commit&lt;br&gt;to Master Branch" style="text;html=1;align=center;verticalAlign=middle;resizable=0;points=[];autosize=1;strokeColor=none;fillColor=none;" vertex="1" parent="tNd2uU0bsCmuSxHjag_w-1">
          <mxGeometry x="677.840081300813" y="201.4285714285714" width="120" height="40" as="geometry" />
        </mxCell>
        <mxCell id="tNd2uU0bsCmuSxHjag_w-28" value="stagging-2pai-dev.com" style="text;html=1;align=center;verticalAlign=middle;resizable=0;points=[];autosize=1;strokeColor=none;fillColor=none;" vertex="1" parent="tNd2uU0bsCmuSxHjag_w-1">
          <mxGeometry x="735.0073170731708" y="94.71938775510203" width="140" height="30" as="geometry" />
        </mxCell>
        <mxCell id="tNd2uU0bsCmuSxHjag_w-29" value="production-2pai-dev.com" style="text;html=1;align=center;verticalAlign=middle;resizable=0;points=[];autosize=1;strokeColor=none;fillColor=none;" vertex="1" parent="tNd2uU0bsCmuSxHjag_w-1">
          <mxGeometry x="730.923943089431" y="441.2244897959184" width="150" height="30" as="geometry" />
        </mxCell>
      </root>
    </mxGraphModel>
  </diagram>
</mxfile>
